<?xml version="1.0" encoding="UTF-8"?><svg id="Layer_2" xmlns="http://www.w3.org/2000/svg" viewBox="0 0 57.14 56.55"><defs><style>.cls-1{fill:#fff;}</style></defs><g id="Layer_1-2"><g><path class="cls-1" d="m38.05,2.94l.67.67c1.53-1.2,3.41-1.85,5.38-1.85,2.32,0,4.49.9,6.13,2.53,3.13,3.13,3.35,8.08.68,11.51l.6.6c.34.35.34.9,0,1.24l-1.16,1.17c.38-.29.75-.61,1.09-.95,4.09-4.09,4.11-10.73.04-14.81-1.97-1.96-4.58-3.05-7.37-3.05s-5.28,1.03-7.24,2.9c.16-.14.36-.22.57-.22.23,0,.46.09.62.26Z"/><polygon class="cls-1" points="36.67 3.08 36.66 3.09 36.67 3.08 36.67 3.08"/><path class="cls-1" d="m7.11,32.81c.3-.08.63,0,.85.23l13.45,13.46c.22.22.31.54.23.85-.04.16-.13.3-.25.41,0,0,.02-.01.02-.02l28.93-28.93,1.16-1.17c.34-.34.34-.9,0-1.24l-.6-.6-6.13-6.13c.34.34.34.9,0,1.24l-.62.62,5.48,5.48-28.85,28.85-12.21-12.21L37.43,4.81l5.48,5.48.62-.62c.34-.34.9-.34,1.24,0l-6.06-6.06-.67-.67c-.16-.16-.39-.26-.62-.26-.21,0-.41.08-.57.22-.02.01-.03.02-.05.04l-.14.14h0S6.71,33.04,6.71,33.04c0,0,0,0,0,0,.11-.11.25-.19.4-.23Z"/><path class="cls-1" d="m21.3,47.83s-.03.02-.05.03c.02,0,.03-.02.05-.03Z"/><path class="cls-1" d="m6.59,33.19s.01-.02.02-.03c0,.01-.01.02-.02.03Z"/><path class="cls-1" d="m21.13,47.93s-.02,0-.04.01c.01,0,.02,0,.04-.01Z"/><path class="cls-1" d="m3.76,45.11c.3-.08.62,0,.85.23l.36.36,2.81-10.35,11.31,11.31-10.35,2.82.36.36c.22.22.31.55.23.85-.08.3-.31.53-.6.62l12.29-3.34s.05-.02.07-.03c.01,0,.02,0,.04-.01.04-.02.08-.04.12-.07.02,0,.03-.02.05-.03.03-.02.06-.05.09-.08.12-.11.21-.25.25-.41.08-.3,0-.63-.23-.85l-13.45-13.46c-.22-.22-.54-.31-.85-.23-.15.04-.29.12-.4.23-.03.04-.06.07-.09.11,0,0-.01.02-.02.03-.05.07-.09.16-.11.24l-3.35,12.3c.08-.3.32-.53.62-.62Z"/><path class="cls-1" d="m2.54,52.99c-.08.02-.15.03-.23.03.08,0,.15-.01.23-.03Z"/><path class="cls-1" d="m2.31,53.02c.08,0,.15-.01.23-.03l6.18-1.68s0,0,.02,0c.29-.09.52-.32.6-.62.08-.3,0-.63-.23-.85l-.36-.36-3.78-3.78-.36-.36c-.22-.22-.55-.31-.85-.23-.3.08-.54.32-.62.62,0,0,0,0,0,0l-1.68,6.18c-.08.3,0,.63.23.85.17.17.39.26.62.26Zm4.49-3.01l-3.24.88.88-3.24,2.36,2.36Z"/><path class="cls-1" d="m44.78,9.67c-.34-.34-.9-.34-1.24,0l-.62.62-22.85,22.85c-.34.34-.34.9,0,1.24.17.17.4.26.62.26s.45-.08.62-.26l22.85-22.85.62-.62c.34-.34.34-.9,0-1.24,0,0,0,0,0,0h0Z"/><path class="cls-1" d="m43.07,56.55h2.64c.49,0,.88-.39.88-.88s-.39-.88-.88-.88h-2.64c-.49,0-.88.39-.88.88s.39.88.88.88Z"/><path class="cls-1" d="m27.25,56.55h2.64c.49,0,.88-.39.88-.88s-.39-.88-.88-.88h-2.64c-.49,0-.88.39-.88.88s.39.88.88.88Z"/><path class="cls-1" d="m.88,56.55h2.64c.49,0,.88-.39.88-.88s-.39-.88-.88-.88H.88c-.49,0-.88.39-.88.88s.39.88.88.88Z"/><path class="cls-1" d="m16.7,56.55h2.64c.49,0,.88-.39.88-.88s-.39-.88-.88-.88h-2.64c-.48,0-.88.39-.88.88s.39.88.88.88Z"/><path class="cls-1" d="m37.8,56.55h2.64c.49,0,.88-.39.88-.88s-.39-.88-.88-.88h-2.64c-.49,0-.88.39-.88.88s.39.88.88.88Z"/><path class="cls-1" d="m32.53,56.55h2.64c.49,0,.88-.39.88-.88s-.39-.88-.88-.88h-2.64c-.49,0-.88.39-.88.88s.39.88.88.88Z"/><path class="cls-1" d="m11.43,56.55h2.64c.48,0,.88-.39.88-.88s-.39-.88-.88-.88h-2.64c-.49,0-.88.39-.88.88s.39.88.88.88Z"/><path class="cls-1" d="m21.98,56.55h2.64c.48,0,.88-.39.88-.88s-.39-.88-.88-.88h-2.64c-.49,0-.88.39-.88.88s.39.88.88.88Z"/><path class="cls-1" d="m48.35,56.55h2.64c.49,0,.88-.39.88-.88s-.39-.88-.88-.88h-2.64c-.49,0-.88.39-.88.88s.39.88.88.88Z"/><path class="cls-1" d="m6.15,56.55h2.64c.49,0,.88-.39.88-.88s-.39-.88-.88-.88h-2.64c-.49,0-.88.39-.88.88s.39.88.88.88Z"/><path class="cls-1" d="m53.62,56.55h2.64c.49,0,.88-.39.88-.88s-.39-.88-.88-.88h-2.64c-.49,0-.88.39-.88.88s.39.88.88.88Z"/></g></g></svg>