<?xml version="1.0" encoding="UTF-8"?><svg id="Layer_2" xmlns="http://www.w3.org/2000/svg" viewBox="0 0 35.44 54.01"><defs><style>.cls-1{fill:#fff;}</style></defs><g id="Layer_1-2"><g><path class="cls-1" d="m19.35,13.11h-.82v3.35h.82c.45,0,.82.37.82.82v-4.99c0,.45-.37.82-.82.82Z"/><path class="cls-1" d="m19.35,24.29h-.82v3.76h.82c.45,0,.82.37.82.82v-5.4c0,.45-.37.82-.82.82Z"/><path class="cls-1" d="m19.35,18.1h-.82v4.55h.82c.45,0,.82.37.82.82v-6.19c0,.45-.37.82-.82.82Z"/><path class="cls-1" d="m.82,54.01h18.53c.45,0,.82-.37.82-.82v-24.31c0,.45-.37.82-.82.82h-.82v3.92h.4c.45,0,.82.37.82.82s-.37.82-.82.82h-.4v4.44h.4c.45,0,.82.37.82.82s-.37.82-.82.82h-.4v4.54c.4.05.71.39.71.81s-.31.76-.71.81v4.86H1.64V2.16h16.89v3.98h.82c.45,0,.82.37.82.82V1.34c0-.45-.37-.82-.82-.82H.82c-.45,0-.82.37-.82.82v51.85c0,.45.37.82.82.82Z"/><path class="cls-1" d="m19.35,7.78h-.82v3.68h.82c.45,0,.82.37.82.82v-5.33c0,.45-.37.82-.82.82Z"/><path class="cls-1" d="m19.35,6.14h-8.36c-.45,0-.82.37-.82.82s.37.82.82.82h8.36c.45,0,.82-.37.82-.82s-.37-.82-.82-.82Z"/><path class="cls-1" d="m19.35,16.45h-8.36c-.45,0-.82.37-.82.82s.37.82.82.82h8.36c.45,0,.82-.37.82-.82s-.37-.82-.82-.82Z"/><path class="cls-1" d="m19.35,28.05h-8.36c-.45,0-.82.37-.82.82s.37.82.82.82h8.36c.45,0,.82-.37.82-.82s-.37-.82-.82-.82Z"/><path class="cls-1" d="m19.35,11.47h-5.62c-.45,0-.82.37-.82.82s.37.82.82.82h5.62c.45,0,.82-.37.82-.82s-.37-.82-.82-.82Z"/><path class="cls-1" d="m19.35,22.65h-5.62c-.45,0-.82.37-.82.82s.37.82.82.82h5.62c.45,0,.82-.37.82-.82s-.37-.82-.82-.82Z"/><path class="cls-1" d="m9.75,40.52c0,.45.37.82.82.82h8.36c.45,0,.82-.37.82-.82s-.37-.82-.82-.82h-8.36c-.45,0-.82.37-.82.82Z"/><path class="cls-1" d="m12.49,34.44c0,.45.37.82.82.82h5.62c.45,0,.82-.37.82-.82s-.37-.82-.82-.82h-5.62c-.45,0-.82.37-.82.82Z"/><path class="cls-1" d="m12.8,45.87c-.45,0-.82.37-.82.82s.37.82.82.82h5.62s.07,0,.11-.01c.4-.05.71-.39.71-.81s-.31-.75-.71-.81c-.04,0-.07-.01-.11-.01h-5.62Z"/><path class="cls-1" d="m4.77,5.38c-.45,0-.82.37-.82.82v43.62c0,.45.37.82.82.82s.82-.37.82-.82V6.2c0-.45-.37-.82-.82-.82Z"/><path class="cls-1" d="m29.8,0h-4.82c-.45,0-.82.37-.82.82s.37.82.82.82h4v-.82c0-.45.37-.82.82-.82Z"/><path class="cls-1" d="m30.62.82v.82h4c.45,0,.82-.37.82-.82s-.37-.82-.82-.82h-4.82c.45,0,.82.37.82.82Z"/><path class="cls-1" d="m28.98,53.19v-.82h-4c-.45,0-.82.37-.82.82s.37.82.82.82h4.82c-.45,0-.82-.37-.82-.82Z"/><path class="cls-1" d="m29.8,54.01h4.82c.45,0,.82-.37.82-.82s-.37-.82-.82-.82h-4v.82c0,.45-.37.82-.82.82Z"/><path class="cls-1" d="m30.62,2.05V.82c0-.45-.37-.82-.82-.82s-.82.37-.82.82v1.23c0,.45.37.82.82.82s.82-.37.82-.82Z"/><path class="cls-1" d="m30.62,11.56v-2.38c0-.45-.37-.82-.82-.82s-.82.37-.82.82v2.38c0,.45.37.82.82.82s.82-.37.82-.82Z"/><path class="cls-1" d="m30.62,49.58v-2.38c0-.45-.37-.82-.82-.82s-.82.37-.82.82v2.38c0,.45.37.82.82.82s.82-.37.82-.82Z"/><path class="cls-1" d="m30.62,6.8v-2.37c0-.45-.37-.82-.82-.82s-.82.37-.82.82v2.37c0,.46.37.82.82.82s.82-.37.82-.82Z"/><path class="cls-1" d="m30.62,16.31v-2.38c0-.45-.37-.82-.82-.82s-.82.37-.82.82v2.38c0,.45.37.82.82.82s.82-.37.82-.82Z"/><path class="cls-1" d="m30.62,40.07v-2.38c0-.45-.37-.82-.82-.82s-.82.37-.82.82v2.38c0,.45.37.82.82.82s.82-.37.82-.82Z"/><path class="cls-1" d="m30.62,35.32v-2.38c0-.45-.37-.82-.82-.82s-.82.37-.82.82v2.38c0,.45.37.82.82.82s.82-.37.82-.82Z"/><path class="cls-1" d="m30.62,44.83v-2.38c0-.45-.37-.82-.82-.82s-.82.37-.82.82v2.38c0,.45.37.82.82.82s.82-.37.82-.82Z"/><path class="cls-1" d="m30.62,21.06v-2.37c0-.45-.37-.82-.82-.82s-.82.37-.82.82v2.37c0,.46.37.82.82.82s.82-.37.82-.82Z"/><path class="cls-1" d="m30.62,30.57v-2.38c0-.45-.37-.82-.82-.82s-.82.37-.82.82v2.38c0,.45.37.82.82.82s.82-.37.82-.82Z"/><path class="cls-1" d="m30.62,25.82v-2.38c0-.45-.37-.82-.82-.82s-.82.37-.82.82v2.38c0,.45.37.82.82.82s.82-.37.82-.82Z"/><path class="cls-1" d="m28.98,51.95v1.23c0,.45.37.82.82.82s.82-.37.82-.82v-1.23c0-.45-.37-.82-.82-.82s-.82.37-.82.82Z"/></g></g></svg>