<?xml version="1.0" encoding="UTF-8"?><svg id="Layer_2" xmlns="http://www.w3.org/2000/svg" viewBox="0 0 59.7 59.47"><defs><style>.cls-1{fill:#fff;}</style></defs><g id="Layer_1-2"><g><path class="cls-1" d="m15.69,7l.33.33v-.27c-.12,0-.23-.02-.33-.06Z"/><polygon class="cls-1" points="16.03 14.59 16.03 10.14 10.16 4.27 10.16 4.27 10.16 4.27 7.94 6.5 16.03 14.59"/><polygon class="cls-1" points="6.53 7.9 4.31 10.12 16.03 21.83 16.03 17.39 6.53 7.9"/><path class="cls-1" d="m50.41,3.49v1.07h7.32v52.92H17.02v-29.47c0-.55-.44-.99-.99-.99s-.99.44-.99.99v30.46c0,.55.45.99.99.99h42.69c.55,0,.99-.44.99-.99V3.57c0-.55-.44-.99-.99-.99h-8.9c.35.15.59.5.59.91Z"/><path class="cls-1" d="m16.03,7.07c.55,0,.99-.45.99-.99v-1.51h7.32v-1.07c0-.41.24-.76.59-.91h-8.9c-.55,0-.99.44-.99.99v2.5c0,.12.03.23.06.33l.59.6c.1.04.22.06.33.06Z"/><path class="cls-1" d="m21.75,10.03v1.62c0,.55.44.99.99.99s.99-.44.99-.99v-.63h.6v-1.98h-1.59c-.55,0-.99.44-.99.99Z"/><path class="cls-1" d="m51.01,49.11h-27.27v-18.08c0-.55-.45-.99-.99-.99s-.99.44-.99.99v19.07c0,.55.44.99.99.99h29.26c.55,0,.99-.44.99-.99V10.03c0-.55-.44-.99-.99-.99h-1.59v1.98h.6v38.08Z"/><path class="cls-1" d="m24.33,3.49v8.16c0,.55.44.99.99.99h24.09c.55,0,.99-.44.99-.99V3.49c0-.41-.25-.76-.59-.91-.12-.05-.26-.08-.4-.08h-24.09c-.14,0-.27.03-.39.08-.35.15-.59.5-.59.91Zm24.09,7.17h-22.11v-6.18h22.11v6.18Z"/><path class="cls-1" d="m1.69,4.49c.29-.6.69-1.16,1.17-1.65.49-.49,1.04-.87,1.62-1.16L3.09.29C2.7-.1,2.08-.1,1.69.29L.29,1.69c-.39.39-.39,1.01,0,1.4l1.4,1.4Z"/><path class="cls-1" d="m2.86,2.84c-.49.49-.88,1.04-1.17,1.65-.4.83-.62,1.75-.61,2.7,0,1.64.65,3.19,1.81,4.35.06.06.12.1.18.14l-.24-.24c-.39-.39-.39-1.01,0-1.4.35-.35.89-.38,1.27-.1-.67-.77-1.05-1.73-1.05-2.76,0-1.11.42-2.16,1.21-2.94,1.62-1.62,4.27-1.61,5.9.03h0s-.08-.08-.08-.08c-.39-.38-.39-1.01,0-1.4.38-.38.98-.38,1.37-.03-1.91-1.83-4.72-2.19-6.97-1.08-.59.29-1.14.67-1.62,1.16Z"/><path class="cls-1" d="m27.92,19.35s-.04-.08-.06-.12c.02.04.05.08.06.12Z"/><path class="cls-1" d="m27.83,19.18s-.04-.06-.07-.08c.02.03.05.05.07.08Z"/><path class="cls-1" d="m27.97,19.54c-.01-.05-.03-.1-.04-.15.02.05.03.1.04.15Z"/><path class="cls-1" d="m10.09,2.8c-.39.39-.39,1.01,0,1.4l.08.08,5.86,5.87,6.72,6.71,3.33,3.33-.05-.31c-.09-.54.28-1.05.81-1.14.33-.06.66.06.87.29,0,0,0,0-.01-.01l-4.96-4.96-6.72-6.71-.33-.33-.59-.6-3.61-3.61s-.02-.02-.03-.03c-.39-.36-.99-.35-1.37.03Z"/><path class="cls-1" d="m19.21,27.79s-.04-.03-.06-.05c.02.02.04.03.06.05Z"/><path class="cls-1" d="m19.06,27.67c-.22-.22-.34-.54-.28-.87.09-.54.6-.91,1.14-.81l.32.05-4.2-4.2L4.31,10.12l-.08-.08s-.08-.07-.13-.1c-.39-.28-.93-.24-1.27.1-.39.39-.39,1.02,0,1.4l.24.24,12.95,12.95,3.02,3.02s0,0,0,0Z"/><path class="cls-1" d="m19.38,27.88s-.06-.03-.08-.04c.03.02.06.03.08.04Z"/><path class="cls-1" d="m19.57,27.93s-.08-.02-.12-.03c.04.01.08.03.12.03Z"/><path class="cls-1" d="m27.25,27.21l-6.64-1.11-.38-.06-.32-.05c-.54-.09-1.05.27-1.14.81-.06.33.06.65.28.87.03.03.06.05.1.08.02.02.04.03.06.05.03.02.06.03.09.04.03.02.06.03.08.04.03,0,.05.01.07.02.04.01.08.03.12.03,0,0,0,0,.01,0l3.15.53,5.23.87-.22-.22c-.39-.39-.39-1.01,0-1.4.39-.39,1.01-.39,1.4,0l.22.22-1.4-8.39h0c-.01-.06-.03-.11-.04-.16,0-.01,0-.03-.01-.04-.02-.04-.04-.08-.06-.12,0-.02-.02-.04-.03-.05-.02-.03-.04-.06-.07-.08-.02-.02-.04-.05-.06-.07-.22-.23-.54-.34-.87-.29-.54.09-.9.6-.81,1.14l.05.31.06.38,1.11,6.64Z"/><path class="cls-1" d="m19.11,20.47c.19.19.45.29.7.29s.51-.1.7-.29c.39-.39.39-1.01,0-1.4l-4.48-4.48L7.94,6.5l-.08-.08c-.39-.39-1.01-.39-1.4,0-.38.39-.38,1.01,0,1.4l.08.08,9.49,9.49,3.08,3.08Z"/><path class="cls-1" d="m31.06,32.02c.25,0,.51-.1.7-.29.39-.39.39-1.02,0-1.4l-2.39-2.39-.22-.22c-.39-.39-1.01-.39-1.4,0-.39.39-.39,1.01,0,1.4l.22.22,2.39,2.39c.19.19.45.29.7.29Z"/><path class="cls-1" d="m37.94,33.44h.99v-5.49h6.82v5.49h.99c.55,0,.99.45.99.99v-7.47c0-.55-.45-.99-.99-.99h-8.81c-.55,0-.99.44-.99.99v6.48h.99Z"/><path class="cls-1" d="m46.75,33.44h-8.81c.55,0,.99.45.99.99v.99h6.82v5.49h-6.82v.99c0,.55-.44.99-.99.99h8.81c.55,0,.99-.45.99-.99v-7.47c0-.55-.45-.99-.99-.99Z"/><path class="cls-1" d="m38.94,41.9v-7.47c0-.55-.44-.99-.99-.99h-8.8c-.55,0-.99.45-.99.99v7.47c0,.55.45.99.99.99h8.8c.55,0,.99-.45.99-.99Zm-8.8-6.48h6.82v5.49h-6.82v-5.49Z"/></g></g></svg>