<?xml version="1.0" encoding="UTF-8"?><svg id="Layer_2" xmlns="http://www.w3.org/2000/svg" viewBox="0 0 83.86 71.14"><defs><style>.cls-1{fill:#fff;}</style></defs><g id="Layer_1-2"><g><path class="cls-1" d="m39.91,57.27v-1.28h-.64c-.7,0-1.28.57-1.28,1.28s.57,1.28,1.28,1.28h1.91c-.7,0-1.27-.57-1.27-1.28Z"/><path class="cls-1" d="m35.73,55.99h-3.54c-.71,0-1.28.57-1.28,1.28s.57,1.28,1.28,1.28h3.54c.7,0,1.28-.57,1.28-1.28s-.57-1.28-1.28-1.28Z"/><path class="cls-1" d="m28.65,55.99h-3.54c-.71,0-1.28.57-1.28,1.28s.57,1.28,1.28,1.28h3.54c.7,0,1.27-.57,1.27-1.28s-.57-1.28-1.27-1.28Z"/><path class="cls-1" d="m21.57,55.99h-3.54c-.71,0-1.27.57-1.27,1.28s.57,1.28,1.27,1.28h3.54c.7,0,1.28-.57,1.28-1.28s-.57-1.28-1.28-1.28Z"/><path class="cls-1" d="m14.49,55.99h-.64v-.64c0-.7-.57-1.27-1.27-1.27s-1.28.57-1.28,1.27v1.91c0,.7.57,1.28,1.28,1.28h1.91c.7,0,1.27-.57,1.27-1.28s-.57-1.28-1.27-1.28Z"/><path class="cls-1" d="m13.85,34.75c-.03-.68-.58-1.23-1.27-1.23s-1.28.57-1.28,1.27v1.55l.02-.02c.69-.75,1.57-1.29,2.53-1.57Z"/><path class="cls-1" d="m13.85,51.93v-1.82l-2.33,2.54c.23.34.61.56,1.05.56.7,0,1.27-.57,1.27-1.28Z"/><path class="cls-1" d="m13.85,31.37v-.64h.64c.7,0,1.27-.57,1.27-1.28s-.57-1.27-1.27-1.27h-1.91c-.71,0-1.28.57-1.28,1.27v1.91c0,.7.57,1.28,1.28,1.28s1.27-.57,1.27-1.28Z"/><path class="cls-1" d="m18.03,30.73h2.55c-.67-.8-1.27-1.66-1.79-2.55h-.75c-.71,0-1.27.57-1.27,1.27s.57,1.28,1.27,1.28Z"/><path class="cls-1" d="m56.5,57.27v-1.28h-14.05v-20.04c-.83.36-1.68.66-2.55.89v20.42c0,.7.57,1.28,1.27,1.28h16.59c-.7,0-1.27-.57-1.27-1.28Z"/><path class="cls-1" d="m49.43,30.73h19.08v13.9h1.27c.71,0,1.28.57,1.28,1.28v-16.45c0-.7-.57-1.27-1.28-1.27h-18.58c-.52.88-1.11,1.74-1.78,2.55Z"/><path class="cls-1" d="m69.79,44.63h-12.01c-.7,0-1.27.57-1.27,1.28v11.36c0,.7.57,1.28,1.27,1.28h12.01c.71,0,1.28-.57,1.28-1.28v-11.36c0-.71-.57-1.28-1.28-1.28Zm-1.27,11.36h-9.46v-8.81h9.46v8.81Z"/><path class="cls-1" d="m20.57,30.73c.27.32.55.64.85.95l.83-.91c.47-.52,1.28-.56,1.8-.08-3.19-2.92-5.05-6.92-5.24-11.24-.19-4.32,1.32-8.46,4.25-11.66,3.06-3.34,7.41-5.26,11.95-5.26,4.06,0,7.95,1.51,10.94,4.26,6.59,6.04,7.03,16.31,1,22.9-3.06,3.34-7.42,5.26-11.95,5.26-4.07,0-7.95-1.51-10.95-4.26.52.48.55,1.28.08,1.8l-.83.91c3.32,2.65,7.42,4.1,11.7,4.1,1.67,0,3.32-.23,4.91-.66.87-.24,1.72-.54,2.55-.89,2.4-1.04,4.58-2.57,6.37-4.53.21-.23.41-.46.61-.69.67-.81,1.26-1.67,1.78-2.55,4.34-7.45,3.07-17.2-3.54-23.26-3.47-3.18-7.97-4.93-12.66-4.93-5.25,0-10.29,2.22-13.83,6.08-3.39,3.69-5.13,8.48-4.91,13.49.14,3.08,1.01,6.02,2.52,8.61.52.89,1.12,1.75,1.79,2.55Z"/><path class="cls-1" d="m26.6,27.92c2.3,2.1,5.28,3.26,8.39,3.26,3.47,0,6.82-1.47,9.16-4.03,4.63-5.05,4.29-12.93-.77-17.56-2.3-2.11-5.28-3.27-8.39-3.27-3.48,0-6.82,1.47-9.16,4.03-4.63,5.05-4.29,12.93.76,17.56Zm8.4-19.04c2.47,0,4.84.92,6.67,2.59,4.01,3.68,4.28,9.94.61,13.95-1.87,2.04-4.52,3.2-7.28,3.2-2.48,0-4.84-.92-6.67-2.59-4.02-3.68-4.29-9.94-.61-13.95,1.87-2.03,4.52-3.2,7.28-3.2Z"/><path class="cls-1" d="m24.13,32.5c.47-.52.44-1.32-.08-1.8-.52-.48-1.33-.44-1.8.08l-.83.91-3.25,3.55c.37.21.72.45,1.04.75.32.3.6.63.84.97l3.25-3.54.83-.91Z"/><path class="cls-1" d="m11.52,52.65l2.33-2.54,5.71-6.23c1.78-1.95,1.92-4.83.49-6.92-.24-.35-.51-.68-.84-.97-.32-.29-.67-.54-1.04-.75-.83-.47-1.77-.72-2.73-.72-.55,0-1.08.08-1.59.24-.96.29-1.84.82-2.53,1.57l-.02.02L1.47,47.07C.46,48.18-.06,49.6,0,51.09c.07,1.49.71,2.87,1.81,3.88,1.03.95,2.37,1.47,3.77,1.47,1.56,0,3.06-.66,4.12-1.81l1.81-1.98Zm-7.99.44c-.6-.55-.95-1.3-.98-2.11-.04-.81.25-1.59.79-2.19l9.85-10.75c.57-.63,1.39-.99,2.24-.99.76,0,1.49.28,2.05.8,1.23,1.13,1.32,3.06.19,4.29l-9.85,10.75c-.58.63-1.39.98-2.24.98-.76,0-1.49-.28-2.05-.8Z"/><path class="cls-1" d="m82.59,25.75h-4.01c.7,0,1.28.57,1.28,1.27v1.28h2.73c.7,0,1.27-.57,1.27-1.28s-.57-1.27-1.27-1.27Z"/><path class="cls-1" d="m78.58,25.75h-4c-.71,0-1.27.57-1.27,1.27s.57,1.28,1.27,1.28h2.73v-1.28c0-.7.57-1.27,1.28-1.27Z"/><path class="cls-1" d="m67.12,66.55c0,.71.57,1.27,1.28,1.27h3.82c.7,0,1.27-.57,1.27-1.27s-.57-1.27-1.27-1.27h-3.82c-.7,0-1.28.57-1.28,1.27Z"/><path class="cls-1" d="m53.09,65.28c-.71,0-1.27.57-1.27,1.27s.57,1.27,1.27,1.27h3.82c.71,0,1.28-.57,1.28-1.27s-.57-1.27-1.28-1.27h-3.82Z"/><path class="cls-1" d="m60.74,65.28c-.7,0-1.27.57-1.27,1.27s.57,1.27,1.27,1.27h3.83c.7,0,1.27-.57,1.27-1.27s-.57-1.27-1.27-1.27h-3.83Z"/><path class="cls-1" d="m78.58,56.35c-.7,0-1.28.57-1.28,1.27v3.83c0,.7.57,1.28,1.28,1.28s1.28-.57,1.28-1.28v-3.83c0-.7-.57-1.27-1.28-1.27Z"/><path class="cls-1" d="m78.58,33.4c-.7,0-1.28.57-1.28,1.27v3.82c0,.7.57,1.28,1.28,1.28s1.28-.57,1.28-1.28v-3.82c0-.7-.57-1.27-1.28-1.27Z"/><path class="cls-1" d="m78.58,64c-.7,0-1.28.57-1.28,1.28h-1.27c-.7,0-1.28.57-1.28,1.28s.57,1.27,1.28,1.27h2.54c.7,0,1.28-.57,1.28-1.27v-1.28c0-.7-.57-1.28-1.28-1.28Z"/><path class="cls-1" d="m78.58,48.7c-.7,0-1.28.57-1.28,1.27v3.82c0,.7.57,1.27,1.28,1.27s1.28-.57,1.28-1.27v-3.82c0-.7-.57-1.27-1.28-1.27Z"/><path class="cls-1" d="m78.58,41.05c-.7,0-1.28.57-1.28,1.27v3.83c0,.7.57,1.27,1.28,1.27s1.28-.57,1.28-1.27v-3.83c0-.7-.57-1.27-1.28-1.27Z"/><path class="cls-1" d="m49.27,67.83c.7,0,1.28-.57,1.28-1.27s-.57-1.27-1.28-1.27h-.07v2.55h.07Z"/><path class="cls-1" d="m78.58,25.75c-.7,0-1.28.57-1.28,1.27v3.83c0,.71.57,1.28,1.28,1.28s1.28-.57,1.28-1.28v-3.83c0-.7-.57-1.27-1.28-1.27Z"/><path class="cls-1" d="m47.92,61.97c-.71,0-1.28.57-1.28,1.27v6.62c0,.7.57,1.28,1.28,1.28s1.28-.57,1.28-1.28v-6.62c0-.7-.57-1.27-1.28-1.27Z"/></g></g></svg>