<?xml version="1.0" encoding="UTF-8"?><svg id="Layer_2" xmlns="http://www.w3.org/2000/svg" viewBox="0 0 69.91 46.52"><defs><style>.cls-1{fill:#fff;}</style></defs><g id="Layer_1-2"><g><path class="cls-1" d="m15.44,11.74l.78.84c3.5-2.99,7.72-5.17,12.34-6.23v-2.19c-5.43,1.13-10.45,3.7-14.61,7.52.43-.39,1.1-.37,1.49.06Z"/><path class="cls-1" d="m6.16,31.63c.7-6.85,3.83-13.01,8.49-17.62l-.77-.83c-.4-.43-.37-1.1.05-1.5-.26.24-.52.48-.77.73-5.26,5.19-8.46,11.94-9.14,19.21h2.14Z"/><path class="cls-1" d="m41.35,6.34c4.67,1.07,8.93,3.29,12.47,6.34l.55-.81c.33-.49.99-.61,1.47-.29.49.33.62.99.29,1.48l-.74,1.09c4.59,4.59,7.66,10.7,8.36,17.48h2.14c-.68-7.28-3.88-14.03-9.14-19.21-4.3-4.23-9.62-7.06-15.39-8.26v2.19Z"/><path class="cls-1" d="m1.06,46.52h67.79c.59,0,1.06-.48,1.06-1.06v-12.76c0-.59-.47-1.07-1.06-1.07h-13.54c-.59,0-1.06.48-1.06,1.07s.48,1.06,1.06,1.06h12.47v10.64H2.12v-10.64h13.38c.59,0,1.06-.48,1.06-1.06s-.47-1.07-1.06-1.07H1.06c-.59,0-1.06.48-1.06,1.07v12.76c0,.59.47,1.06,1.06,1.06Z"/><path class="cls-1" d="m34.95,42.08c5.51,0,10.09-4.08,10.86-9.38.08-.52.12-1.05.12-1.6,0-6.05-4.93-10.98-10.98-10.98s-10.98,4.92-10.98,10.98c0,.54.04,1.08.12,1.6.77,5.3,5.35,9.38,10.86,9.38Zm-8.86-10.98c0-4.88,3.97-8.85,8.86-8.85s8.86,3.97,8.86,8.85-3.97,8.86-8.86,8.86-8.86-3.97-8.86-8.86Z"/><path class="cls-1" d="m34.95,37.5c3.53,0,6.4-2.87,6.4-6.4s-2.87-6.4-6.4-6.4-6.4,2.87-6.4,6.4,2.87,6.4,6.4,6.4Zm-4.27-6.4c0-2.36,1.92-4.27,4.27-4.27s4.27,1.92,4.27,4.27-1.92,4.27-4.27,4.27-4.27-1.92-4.27-4.27Z"/><path class="cls-1" d="m28.55,6.34v5.08c0,.59.48,1.06,1.06,1.06s1.06-.48,1.06-1.06V2.12h8.55v9.3c0,.59.47,1.06,1.06,1.06s1.06-.48,1.06-1.06V1.06c0-.59-.47-1.06-1.06-1.06h-10.67c-.59,0-1.06.47-1.06,1.06v5.28Z"/><path class="cls-1" d="m13.88,13.19l.77.83,4.57,4.91c.21.23.49.34.78.34.26,0,.52-.09.72-.29.43-.4.45-1.07.06-1.5l-4.56-4.9-.78-.84c-.4-.43-1.06-.45-1.49-.06,0,0,0,0,0,0,0,0,0,0,0,0-.42.4-.45,1.07-.05,1.5Z"/><path class="cls-1" d="m50.77,19.08c.18.12.39.18.59.18.34,0,.68-.16.88-.47l3.14-4.65.74-1.09c.33-.48.2-1.15-.29-1.48-.48-.33-1.14-.2-1.47.29l-.55.81-3.33,4.92c-.33.49-.2,1.15.29,1.48Z"/></g></g></svg>