<?xml version="1.0" encoding="utf-8"?>
<!-- Generator: Adobe Illustrator 27.2.0, SVG Export Plug-In . SVG Version: 6.00 Build 0)  -->
<svg version="1.1" id="Layer_1" xmlns="http://www.w3.org/2000/svg" xmlns:xlink="http://www.w3.org/1999/xlink" x="0px" y="0px"
	 viewBox="0 0 592.7 93.8" style="enable-background:new 0 0 592.7 93.8;" xml:space="preserve">
<style type="text/css">
	.st0{fill:#FFFFFF;}
</style>
<g>
	<g>
		<g>
			<g>
				<g>
					<g>
						<polygon class="st0" points="89.3,80.4 105.1,80.4 110.9,71.6 91.7,71.6 100.8,40.8 102.2,40.8 111.2,71.6 111.2,71.6 
							113.6,80.4 113.7,80.4 117.7,94.2 128.1,94.2 110.3,34.9 92.6,34.9 74.8,94.2 85.3,94.2 						"/>
						<path class="st0" d="M192.8,66.8c-1.6-1-3.1-1.7-4.6-2v-1.4c1.4-0.4,2.9-1.1,4.4-2c1.5-1,2.8-2.3,3.9-4.1
							c1.1-1.7,1.7-4,1.7-6.7v-0.8c0-3-0.8-5.7-2.4-7.9c-1.6-2.2-3.8-4-6.7-5.2c-2.9-1.2-6.2-1.8-10-1.8h-27.5v59.3h27.6
							c3.7,0,7-0.6,9.9-1.9c2.9-1.2,5.1-3,6.8-5.3c1.7-2.3,2.5-5.1,2.5-8.4v-0.8c0-2.8-0.6-5.1-1.7-6.9
							C195.8,69.1,194.4,67.8,192.8,66.8z M161.9,43.5h16.3c3,0,5.4,0.7,7.2,2.1c1.8,1.4,2.7,3.3,2.7,5.7v0.8c0,2.4-0.9,4.3-2.8,5.8
							c-1.8,1.4-4.2,2.1-7.2,2.1h-16.3V43.5z M188.5,77.5c0,2.5-0.9,4.5-2.8,5.9c-1.8,1.4-4.3,2.1-7.4,2.1h-16.3V68.7h16.3
							c3.2,0,5.7,0.7,7.5,2.1c1.8,1.4,2.7,3.4,2.7,5.9V77.5z"/>
						<rect x="224.8" y="34.9" class="st0" width="10.1" height="59.3"/>
						<polygon class="st0" points="40.4,60.2 9.8,60.2 9.8,34.8 0,34.8 0,93.5 9.8,93.5 9.8,60.2 17.1,69.3 40.4,69.3 40.4,93.5 
							50.2,93.5 50.2,34.8 40.4,34.8 						"/>
					</g>
				</g>
			</g>
			<polygon class="st0" points="346.4,34.6 328.6,93.8 339.1,93.8 343.1,80 343.1,80 345.6,71.2 345.5,71.2 354.5,40.5 356,40.5 
				365,71.2 345.7,71.2 351.5,80 367.5,80 371.5,93.8 381.9,93.8 364.1,34.6 			"/>
			<polygon class="st0" points="447.4,87.5 445.9,87.5 429.4,34.6 410.1,34.6 410.1,93.8 420,93.8 420,40.8 421.5,40.8 438,93.8 
				457.3,93.8 457.3,34.6 447.4,34.6 			"/>
			<polygon class="st0" points="480.4,43.2 499.7,43.2 499.7,93.8 509.8,93.8 509.8,43.2 529,43.2 529,34.6 480.4,34.6 			"/>
			<polygon class="st0" points="562.5,85.2 562.5,68.3 589.7,68.3 589.7,59.7 562.5,59.7 562.5,43.2 592.3,43.2 592.3,34.6 
				552.3,34.6 552.3,93.8 592.7,93.8 592.7,85.2 			"/>
			<path class="st0" d="M287.2,16.4L287.2,16.4c-4.5,0-8.2-3.7-8.2-8.2v0c0-4.5,3.7-8.2,8.2-8.2l0,0c4.5,0,8.2,3.7,8.2,8.2v0
				C295.4,12.7,291.7,16.4,287.2,16.4z"/>
		</g>
	</g>
	<polygon class="st0" points="262.6,43.2 281.8,43.2 281.8,93.8 291.9,93.8 291.9,43.2 311.2,43.2 311.2,34.6 262.6,34.6 	"/>
</g>
</svg>
