<?xml version="1.0" encoding="utf-8"?>
<!-- Generator: Adobe Illustrator 27.2.0, SVG Export Plug-In . SVG Version: 6.00 Build 0)  -->
<svg version="1.1" id="Layer_1" xmlns="http://www.w3.org/2000/svg" xmlns:xlink="http://www.w3.org/1999/xlink" x="0px" y="0px"
	 viewBox="0 0 51.6 84.4" style="enable-background:new 0 0 51.6 84.4;" xml:space="preserve">
<style type="text/css">
	.st0{fill:#FFFFFF;}
</style>
<g>
	<g>
		<polygon class="st0" points="18.3,40.4 24.4,40.4 24.4,56.4 27.6,56.4 27.6,40.4 33.7,40.4 33.7,37.7 18.3,37.7 		"/>
	</g>
	<g>
		<path class="st0" d="M26,31.9L26,31.9c-1.4,0-2.6-1.2-2.6-2.6v0c0-1.4,1.2-2.6,2.6-2.6h0c1.4,0,2.6,1.2,2.6,2.6v0
			C28.6,30.7,27.4,31.9,26,31.9z"/>
	</g>
	<g>
		<path class="st0" d="M26,81.1c-12.9,0-23.5-10.5-23.5-23.5V25.5C2.5,12.6,13.1,2,26,2C39,2,49.5,12.6,49.5,25.5v32.1
			C49.5,70.6,39,81.1,26,81.1z M26,2.5c-12.7,0-23,10.3-23,23v32.1c0,12.7,10.3,23,23,23h0c12.7,0,23-10.3,23-23V25.5
			C49,12.8,38.7,2.5,26,2.5z"/>
	</g>
</g>
</svg>
